<?xml version="1.0" encoding="utf-8"?>
<!-- Generator: Adobe Illustrator 23.0.1, SVG Export Plug-In . SVG Version: 6.00 Build 0)  -->
<svg version="1.1" xmlns="http://www.w3.org/2000/svg" xmlns:xlink="http://www.w3.org/1999/xlink" x="0px" y="0px"
	 viewBox="0 0 400 400" style="enable-background:new 0 0 400 400;" xml:space="preserve">
<style type="text/css">
	.st0{fill:none;}
	.st1{fill:none;stroke:#F09451;stroke-width:8;stroke-linecap:round;stroke-miterlimit:3;}
	.st2{clip-path:url(#SVGID_2_);}
	.st3{fill:none;stroke:#F09451;stroke-width:25;stroke-linecap:square;stroke-miterlimit:3;}
	.st4{fill:none;stroke:#F09451;stroke-width:30;stroke-linecap:round;stroke-miterlimit:3;}
</style>
<g id="Layer_2">
	<path d="M47,52.1"/>
	<path class="st0" d="M41,55.9c0,0,138.4,48.3,327.4,0"/>
	
		<image style="overflow:visible;" width="1399" height="372" xlink:href="DC42987.jpg"  transform="matrix(0.256 0 0 0.2758 10.2067 195.04)">
	</image>
</g>
<g id="Layer_1">
	<path class="st1" d="M201.9,39.1c0,0,6.6,16.2,2.7,26.8c-3.8,10.6-28.5,26.4-0.8,46.5s-5.5,36.7-5.5,36.7"/>
	<path class="st1" d="M262,16.7c0,0-5.7,16.5-1.3,26.9S290.6,68.4,264,90s7.5,36.3,7.5,36.3"/>
	<path class="st1" d="M133.6,19.3c0,0-5.7,16.5-1.3,26.9c4.4,10.4,29.8,24.9,3.3,46.4s7.5,36.3,7.5,36.3"/>
	<g>
		<defs>
			<rect id="SVGID_1_" width="400" height="400"/>
		</defs>
		<clipPath id="SVGID_2_">
			<use xlink:href="#SVGID_1_"  style="overflow:visible;"/>
		</clipPath>
		<g class="st2">
			<g>
				<path vector-effect="non-scaling-stroke" class="st3" d="M245.5,351c80.7-1.3,118.3-64,113-188l-7,1c-98.7,7.3-198,7.3-298,0
					l-10-1c-5.3,124,32.3,186.7,113,188h9.5h69"/>
			</g>
			<line vector-effect="non-scaling-stroke" class="st4" x1="158.1" y1="366" x2="251.1" y2="366"/>
		</g>
	</g>
</g>
</svg>
